<svg xmlns="http://www.w3.org/2000/svg" xmlns:xlink="http://www.w3.org/1999/xlink" width="2000" zoomAndPan="magnify" viewBox="0 0 1500 1499.999933" height="2000" preserveAspectRatio="xMidYMid meet" version="1.0"><defs><g/><clipPath id="6d5f758a67"><path d="M 176.875 674 L 354 674 L 354 841 L 176.875 841 Z M 176.875 674 " clip-rule="nonzero"/></clipPath><clipPath id="4847d888d7"><path d="M 684 778 L 752.875 778 L 752.875 895 L 684 895 Z M 684 778 " clip-rule="nonzero"/></clipPath><clipPath id="b925bec000"><path d="M 527.875 556.730469 L 1323.125 556.730469 L 1323.125 781.660156 L 527.875 781.660156 Z M 527.875 556.730469 " clip-rule="nonzero"/></clipPath><clipPath id="d746308532"><path d="M 0.875 0.730469 L 796.125 0.730469 L 796.125 225.660156 L 0.875 225.660156 Z M 0.875 0.730469 " clip-rule="nonzero"/></clipPath><clipPath id="615c91efa3"><rect x="0" width="797" y="0" height="226"/></clipPath></defs><path fill="#34abe2" d="M 526.542969 504.683594 C 516.390625 494.929688 506.109375 485.414062 495.878906 476.121094 C 494.714844 476.070312 493.492188 475.964844 492.210938 475.855469 C 490.695312 475.636719 489.117188 475.234375 487.53125 474.832031 C 486.84375 474.601562 486.230469 474.433594 485.710938 474.257812 C 485.546875 474.261719 485.429688 474.203125 485.316406 474.144531 C 480.796875 480.675781 476.203125 487.703125 471.417969 495.113281 C 466.726562 502.496094 461.894531 510.320312 457.03125 518.472656 C 458.828125 519.925781 460.472656 521.558594 461.902344 523.195312 C 463.390625 524.949219 464.617188 526.828125 465.570312 528.769531 C 481.605469 530.1875 497.042969 531.722656 511.90625 533.605469 C 526.660156 535.351562 540.890625 537.382812 554.660156 539.640625 C 554.632812 539.410156 554.671875 539.292969 554.660156 539.117188 C 554.738281 538.246094 554.917969 537.316406 555.066406 536.5625 C 555.308594 535.742188 555.515625 535.046875 555.835938 534.34375 C 555.988281 534.164062 556.078125 533.988281 556.109375 533.757812 C 546.363281 523.953125 536.550781 514.257812 526.542969 504.683594 Z M 526.542969 504.683594 " fill-opacity="1" fill-rule="evenodd"/><path fill="#34abe2" d="M 460.507812 488.902344 C 465.214844 481.773438 469.785156 475.027344 474.316406 468.601562 C 473.195312 467.777344 472.121094 466.894531 471.097656 466.011719 C 469.953125 464.949219 468.921875 463.890625 468.050781 462.824219 C 460.882812 461.542969 453.554688 460.25 446.1875 459.132812 C 438.421875 457.832031 430.613281 456.699219 422.542969 455.628906 C 414.472656 454.542969 406.1875 453.519531 397.804688 452.550781 C 389.699219 451.632812 381.714844 450.839844 373.789062 450.035156 C 373.207031 451.015625 372.5625 451.929688 371.636719 452.726562 C 371.019531 453.28125 370.296875 453.886719 369.507812 454.378906 C 378.917969 463.296875 388.242188 472.285156 397.417969 481.285156 C 407.210938 490.765625 417.167969 500.613281 427.171875 510.699219 C 428.371094 510.433594 429.675781 510.171875 431.105469 510.019531 C 432.753906 509.871094 434.527344 509.894531 436.371094 510.042969 C 438.324219 510.179688 440.125 510.507812 441.941406 510.953125 C 443.300781 511.28125 444.605469 511.617188 445.921875 512.128906 C 450.863281 504.078125 455.707031 496.355469 460.507812 488.902344 Z M 460.507812 488.902344 " fill-opacity="1" fill-rule="evenodd"/><path fill="#1190cf" d="M 387.925781 486.738281 C 377.859375 476.941406 367.835938 467.324219 357.855469 458.015625 C 357.257812 458.136719 356.601562 458.203125 354.730469 458.203125 C 353.25 458.265625 351.039062 458.148438 348.867188 457.839844 C 347.261719 457.71875 345.648438 457.476562 344.195312 457.171875 C 335.03125 465.675781 325.722656 474.800781 316.277344 484.488281 C 307.164062 493.917969 297.851562 503.921875 288.453125 514.625 C 288.917969 514.992188 289.335938 515.359375 289.800781 515.726562 C 290.699219 516.65625 291.648438 517.585938 292.4375 518.640625 C 293.230469 519.632812 294.023438 520.683594 294.710938 521.804688 C 295.148438 522.492188 295.582031 523.234375 295.96875 523.984375 C 316.464844 523.445312 336.550781 523.355469 356.214844 523.578125 C 375.71875 523.859375 394.808594 524.441406 413.429688 525.328125 C 413.617188 523.507812 414.082031 521.800781 414.789062 520.328125 C 415.492188 518.796875 416.480469 517.320312 417.648438 516.085938 C 407.777344 506.160156 397.835938 496.359375 387.925781 486.738281 Z M 387.925781 486.738281 " fill-opacity="1" fill-rule="evenodd"/><path fill="#085c9c" d="M 215.296875 608.050781 C 202.910156 625.597656 190.257812 644.34375 177.503906 664.238281 C 180.203125 666.230469 182.519531 668.441406 184.402344 670.871094 C 186.402344 673.359375 187.960938 676.074219 189.078125 678.941406 C 214.660156 675.191406 239.855469 671.753906 264.5 668.640625 C 289.019531 665.558594 313.046875 662.785156 336.472656 660.316406 C 336.570312 656.304688 337.363281 652.433594 338.800781 649.027344 C 340.347656 645.492188 342.539062 642.296875 345.3125 639.503906 C 339.453125 632.554688 333.546875 625.578125 327.695312 618.449219 C 310.71875 598.148438 293.472656 577.648438 276.796875 557.871094 C 272.960938 558.828125 268.917969 559.21875 264.902344 559.164062 C 260.894531 559.171875 256.789062 558.546875 252.925781 557.398438 C 240.589844 573.171875 228.046875 590.050781 215.296875 608.050781 Z M 215.296875 608.050781 " fill-opacity="1" fill-rule="evenodd"/><path fill="#077aba" d="M 313.675781 580.601562 C 328.488281 598.3125 343.175781 615.867188 356.882812 632.273438 C 358.359375 631.75 359.84375 631.355469 361.449219 630.953125 C 363.613281 630.511719 365.785156 630.261719 368.199219 630.1875 C 370.722656 630.101562 373.15625 630.265625 375.601562 630.617188 C 377.488281 630.9375 379.375 631.320312 381.164062 631.894531 C 388.855469 616.132812 396.308594 601.273438 403.632812 587.296875 C 410.875 573.335938 418.085938 560.117188 425.0625 547.710938 C 423.207031 546.195312 421.40625 544.613281 419.855469 542.785156 C 418.316406 541.015625 416.976562 539.054688 415.96875 536.960938 C 396.996094 536.21875 377.777344 535.839844 358.210938 535.820312 C 338.632812 535.738281 318.640625 536.035156 298.292969 536.714844 C 297.933594 539.558594 296.957031 542.296875 295.414062 544.929688 C 293.96875 547.375 292.007812 549.644531 289.523438 551.621094 C 297.59375 561.324219 305.6875 570.984375 313.675781 580.601562 Z M 313.675781 580.601562 " fill-opacity="1" fill-rule="evenodd"/><path fill="#34abe2" d="M 627.808594 598.085938 C 638.101562 609.921875 648.273438 621.851562 658.398438 634.042969 C 659.640625 633.566406 660.972656 633.316406 662.324219 633.28125 C 663.5625 633.253906 664.828125 633.402344 666.105469 633.707031 C 666.203125 624.515625 666.148438 615.445312 666.007812 606.671875 C 665.921875 597.453125 665.660156 588.640625 665.390625 580.28125 C 665.007812 579.90625 664.632812 579.535156 664.304688 579.160156 C 663.101562 578.039062 662 576.746094 660.957031 575.507812 C 660.035156 574.378906 659.230469 573.296875 658.484375 572.152344 C 648.855469 569.375 638.929688 566.804688 628.628906 564.347656 C 618.679688 561.972656 608.414062 559.640625 597.84375 557.535156 C 597.792969 557.59375 597.804688 557.648438 597.808594 557.703125 L 597.8125 557.765625 C 597.835938 558.5 597.703125 559.308594 597.507812 560.054688 C 597.367188 560.804688 597.117188 561.609375 596.800781 562.308594 C 596.675781 562.660156 596.589844 562.945312 596.449219 563.179688 C 606.996094 574.605469 617.425781 586.238281 627.808594 598.085938 Z M 627.808594 598.085938 " fill-opacity="1" fill-rule="evenodd"/><path fill="#34abe2" d="M 675.097656 610.628906 C 675.265625 619.488281 675.355469 628.746094 675.3125 638.304688 C 676.253906 639.027344 677.136719 639.800781 678.09375 640.6875 C 679.191406 641.785156 680.359375 643.042969 681.417969 644.3125 L 681.425781 644.367188 C 682.492188 645.6875 683.453125 647.070312 684.304688 648.515625 C 684.949219 649.585938 685.53125 650.65625 686.0625 651.789062 C 694.328125 652.53125 702.324219 653.390625 710.042969 654.269531 C 717.195312 655.121094 724.1875 656.035156 730.960938 657.015625 C 730.761719 656.3125 730.609375 655.613281 730.523438 654.960938 C 730.367188 653.761719 730.339844 652.613281 730.390625 651.675781 C 726.539062 646.410156 722.511719 641.082031 718.375 635.699219 C 714.050781 630.144531 709.867188 624.789062 705.765625 619.523438 C 705.644531 619.480469 705.578125 619.425781 705.519531 619.375 C 705.40625 619.382812 705.390625 619.273438 705.320312 619.167969 C 705.253906 619.0625 705.183594 618.953125 705.113281 618.847656 C 700.761719 613.359375 696.503906 608.128906 692.332031 603.105469 C 688.226562 598.121094 684.003906 593.011719 679.605469 587.84375 C 678.644531 587.777344 677.554688 587.609375 676.511719 587.328125 C 675.867188 587.082031 675.214844 586.835938 674.507812 586.535156 C 674.761719 594.261719 675.003906 602.328125 675.097656 610.628906 Z M 675.097656 610.628906 " fill-opacity="1" fill-rule="evenodd"/><path fill="#1190cf" d="M 745.679688 711.046875 C 744.421875 699.09375 743.03125 687.484375 741.40625 676.269531 C 740.609375 675.351562 739.800781 674.429688 739.046875 673.390625 C 738.152344 672.257812 737.308594 671.007812 736.457031 669.703125 L 736.453125 669.65625 C 736.101562 669.132812 735.808594 668.660156 735.53125 668.246094 C 735.4375 667.980469 735.300781 667.769531 735.09375 667.507812 C 727.792969 666.488281 720.269531 665.53125 712.597656 664.6875 C 705.039062 663.835938 697.265625 663.042969 689.28125 662.367188 C 689.410156 663.917969 689.464844 665.304688 689.300781 666.769531 C 689.15625 668.402344 688.828125 669.929688 688.316406 671.308594 C 697.980469 683.785156 707.460938 696.320312 716.75 708.90625 C 726.078125 721.53125 735.148438 734.164062 743.898438 746.753906 C 744.109375 746.625 744.277344 746.550781 744.4375 746.480469 C 745.148438 746.183594 745.871094 745.9375 746.601562 745.808594 C 747.269531 745.625 747.902344 745.613281 748.59375 745.589844 C 748.652344 745.585938 748.703125 745.582031 748.765625 745.578125 C 747.8125 733.742188 746.832031 722.195312 745.679688 711.046875 Z M 745.679688 711.046875 " fill-opacity="1" fill-rule="evenodd"/><path fill="#077aba" d="M 711.089844 715.488281 C 701.796875 702.832031 692.203125 690.242188 682.414062 677.59375 C 681.222656 678.132812 679.949219 678.40625 678.589844 678.519531 C 677.34375 678.5625 676.078125 678.441406 674.738281 678.214844 C 674.375 691.488281 673.835938 705.246094 673.183594 719.605469 C 672.429688 734.15625 671.546875 749.203125 670.5 764.863281 C 673.0625 766.558594 675.515625 768.769531 677.671875 771.410156 C 679.746094 773.820312 681.589844 776.714844 683.128906 779.925781 C 692.65625 777.859375 702.054688 775.703125 711.457031 773.605469 C 720.46875 771.625 729.242188 769.613281 737.851562 767.742188 C 737.355469 765.199219 737.21875 762.726562 737.285156 760.507812 C 737.371094 758.007812 737.765625 755.703125 738.441406 753.746094 C 729.492188 740.882812 720.410156 728.125 711.089844 715.488281 Z M 711.089844 715.488281 " fill-opacity="1" fill-rule="evenodd"/><path fill="#2e365e" d="M 411.832031 719.332031 C 405.085938 711.265625 398.351562 703.160156 391.570312 695.023438 C 390.144531 695.691406 388.65625 696.183594 387.101562 696.613281 C 385.046875 697.210938 382.808594 697.636719 380.332031 697.898438 C 377.90625 698.09375 375.40625 698.050781 372.835938 697.820312 C 370.945312 697.601562 368.992188 697.320312 367.199219 696.839844 C 362.792969 706.902344 358.351562 717.308594 353.691406 728.132812 C 348.792969 739.714844 343.878906 751.332031 339.027344 763.234375 C 333.917969 775.710938 328.753906 788.488281 323.585938 801.503906 C 318.550781 814.167969 313.613281 826.863281 308.671875 839.722656 C 312.976562 841.996094 316.878906 845.074219 320.066406 848.675781 C 323.207031 852.277344 325.75 856.453125 327.519531 861.167969 C 335.652344 859.296875 343.730469 857.429688 351.804688 855.574219 C 394.414062 845.640625 433.808594 836.46875 470.5 828.101562 C 470.152344 822.816406 470.683594 817.667969 471.992188 812.90625 C 473.40625 807.964844 475.597656 803.417969 478.410156 799.40625 C 457.4375 774.160156 434.703125 746.804688 411.832031 719.332031 Z M 411.832031 719.332031 " fill-opacity="1" fill-rule="evenodd"/><g clip-path="url(#6d5f758a67)"><path fill="#2e365e" d="M 339.433594 722.257812 C 344.203125 711.257812 348.882812 700.800781 353.410156 690.707031 C 350.316406 688.703125 347.582031 686.222656 345.226562 683.464844 C 342.871094 680.636719 340.890625 677.53125 339.449219 674.132812 C 316.003906 676.832031 291.902344 679.90625 267.1875 683.304688 C 242.183594 686.753906 216.683594 690.523438 190.789062 694.617188 C 190.445312 696.480469 190.039062 698.414062 189.410156 700.296875 C 188.574219 702.65625 187.519531 705.039062 186.0625 707.386719 C 184.722656 709.789062 183.085938 712.027344 181.335938 714.203125 C 179.949219 715.765625 178.4375 717.273438 176.875 718.714844 C 190.75 739.035156 205.257812 759.527344 220.246094 780.125 C 234.746094 800.078125 249.722656 820.261719 265.289062 840.449219 C 267.132812 839.582031 268.929688 838.785156 270.839844 838.109375 C 273.3125 837.164062 275.976562 836.464844 278.582031 835.890625 C 281.253906 835.378906 283.824219 835.003906 286.351562 834.894531 C 288.417969 834.839844 290.433594 834.851562 292.347656 835.070312 C 297.691406 821.917969 302.859375 809.027344 308.136719 796.226562 C 313.53125 783.019531 318.9375 770.175781 324.289062 757.636719 C 329.265625 745.621094 334.292969 733.828125 339.433594 722.257812 Z M 339.433594 722.257812 " fill-opacity="1" fill-rule="evenodd"/></g><g clip-path="url(#4847d888d7)"><path fill="#085c9c" d="M 752.636719 839.480469 C 752.496094 822.847656 752.070312 806.816406 751.355469 791.332031 C 749.425781 789.859375 747.625 788.039062 745.894531 785.867188 C 744.300781 783.796875 742.835938 781.429688 741.582031 778.867188 C 732.691406 780.917969 723.792969 783.035156 714.847656 785.160156 C 705.496094 787.339844 696.140625 789.527344 686.722656 791.734375 C 687.289062 795.050781 687.332031 798.3125 687.054688 801.339844 C 686.636719 804.71875 685.835938 807.757812 684.59375 810.511719 C 695.171875 824.667969 705.550781 838.75 715.75 852.941406 C 725.761719 866.742188 735.453125 880.503906 744.871094 894.117188 C 745.976562 893.046875 747.230469 892.238281 748.507812 891.648438 C 749.785156 891 751.160156 890.675781 752.574219 890.675781 C 752.796875 872.960938 752.855469 855.917969 752.636719 839.480469 Z M 752.636719 839.480469 " fill-opacity="1" fill-rule="evenodd"/></g><path fill="#2e365e" d="M 709.535156 861.59375 C 699.277344 847.285156 688.757812 832.972656 678.050781 818.648438 C 677.464844 819.125 676.867188 819.488281 676.15625 819.859375 C 675.003906 820.464844 673.785156 820.960938 672.484375 821.304688 C 671.1875 821.644531 669.816406 821.878906 668.429688 821.945312 C 667.671875 821.929688 666.847656 821.863281 665.972656 821.808594 C 665.175781 831.082031 664.234375 840.726562 663.21875 850.675781 C 662.179688 861.101562 661.0625 871.847656 659.789062 882.851562 C 658.605469 894.210938 657.25 905.671875 655.921875 917.492188 C 654.515625 928.710938 653.121094 940.007812 651.632812 951.679688 C 654.125 953.328125 656.496094 955.453125 658.679688 958.015625 C 660.664062 960.433594 662.464844 963.28125 663.996094 966.351562 C 677.601562 959.128906 690.488281 952.070312 702.660156 945.117188 C 715.3125 937.902344 727.199219 930.855469 738.378906 923.96875 C 738.066406 922.449219 737.875 920.917969 737.796875 919.304688 C 737.617188 917.375 737.539062 915.371094 737.652344 913.386719 C 737.710938 911.476562 737.945312 909.59375 738.253906 907.746094 C 738.542969 906.300781 738.847656 904.964844 739.28125 903.667969 C 729.65625 889.792969 719.824219 875.765625 709.535156 861.59375 Z M 709.535156 861.59375 " fill-opacity="1" fill-rule="evenodd"/><path fill="#2e365e" d="M 652.703125 847.507812 C 653.738281 837.578125 654.78125 827.777344 655.660156 818.066406 C 652.957031 816.242188 650.429688 813.9375 648.152344 811.246094 C 645.953125 808.664062 644.039062 805.582031 642.507812 802.277344 C 618.566406 807.921875 592.511719 814.167969 564.910156 820.722656 C 558.691406 822.269531 552.40625 823.765625 546.121094 825.269531 C 546.667969 830.289062 546.34375 835.238281 545.351562 839.929688 C 544.367188 844.738281 542.601562 849.300781 540.199219 853.304688 C 543.691406 857.515625 547.136719 861.789062 550.570312 865.992188 C 574.484375 895.011719 598.222656 924.039062 623.066406 954.5 C 624.035156 953.578125 624.953125 952.78125 625.996094 952.023438 C 627.472656 950.894531 629.207031 949.96875 631.023438 949.246094 C 632.835938 948.535156 634.617188 948.050781 636.539062 947.785156 C 637.882812 947.617188 639.175781 947.566406 640.484375 947.636719 C 642.058594 936.140625 643.550781 924.972656 644.953125 914.1875 C 646.386719 902.65625 647.757812 891.21875 649.121094 879.742188 C 650.363281 868.875 651.5625 858.148438 652.703125 847.507812 Z M 652.703125 847.507812 " fill-opacity="1" fill-rule="evenodd"/><path fill="#0c0a28" d="M 542.246094 876.894531 C 538.617188 872.476562 534.917969 867.996094 531.234375 863.503906 C 529.769531 864.664062 528.1875 865.777344 526.53125 866.664062 C 524.3125 867.867188 521.90625 868.914062 519.351562 869.632812 C 516.855469 870.339844 514.328125 870.695312 511.773438 870.746094 C 509.859375 870.835938 507.875 870.75 505.984375 870.476562 C 494.546875 918.722656 482.152344 970.945312 468.5625 1027.695312 C 468.40625 1027.964844 468.371094 1028.277344 468.335938 1028.527344 C 472.308594 1030.609375 475.824219 1033.5625 478.875 1037.324219 C 481.742188 1040.933594 484.121094 1045.128906 485.859375 1049.976562 C 497.105469 1045.375 508.328125 1040.484375 519.535156 1035.554688 C 531.082031 1030.519531 542.382812 1025.445312 553.441406 1020.480469 C 564.246094 1015.464844 574.660156 1010.730469 584.484375 1006.117188 C 593.894531 1001.652344 603.1875 997.238281 612.066406 992.90625 C 611.453125 988.152344 611.488281 983.40625 612.035156 978.96875 C 612.5625 974.371094 613.695312 969.957031 615.359375 966.039062 C 591.925781 937.210938 567.140625 907.097656 542.246094 876.894531 Z M 542.246094 876.894531 " fill-opacity="1" fill-rule="evenodd"/><path fill="#0c0a28" d="M 454.09375 1023.300781 C 468.003906 967.351562 480.773438 915.804688 492.964844 866.136719 C 488.671875 863.710938 484.773438 860.371094 481.449219 856.289062 C 478.203125 852.421875 475.476562 847.816406 473.582031 842.738281 C 469.554688 843.738281 465.527344 844.683594 461.550781 845.621094 C 421.351562 855.390625 377.863281 865.957031 330.007812 877.691406 C 329.742188 883.046875 328.59375 888.214844 326.566406 893.253906 C 324.535156 898.292969 321.625 903.214844 318.152344 907.589844 C 326.738281 918.304688 335.511719 928.996094 344.199219 939.707031 C 353.144531 950.449219 362.5 961.578125 372.058594 972.855469 L 372.066406 972.988281 C 372.074219 973.042969 372.074219 973.042969 372.128906 973.035156 C 372.253906 973.136719 372.382812 973.3125 372.507812 973.414062 C 381.714844 984.308594 391.058594 995.179688 400.550781 1006.09375 C 409.429688 1016.367188 418.375 1026.445312 427.28125 1036.476562 C 428.984375 1034.796875 430.9375 1033.320312 432.898438 1031.964844 C 435.367188 1030.273438 437.972656 1028.863281 440.667969 1027.75 C 443.242188 1026.652344 445.789062 1025.945312 448.234375 1025.488281 C 450.046875 1025.21875 451.867188 1025.007812 453.703125 1025.039062 C 453.832031 1024.460938 453.96875 1023.945312 454.09375 1023.300781 Z M 454.09375 1023.300781 " fill-opacity="1" fill-rule="evenodd"/><path fill="#8ad7f8" d="M 627.984375 530.820312 C 619.03125 521.582031 610.070312 512.570312 601.117188 503.910156 C 599.839844 503.875 598.425781 503.617188 596.828125 503.191406 C 595.625 502.871094 594.363281 502.441406 593.082031 501.894531 C 592.355469 504.867188 591.667969 507.726562 590.992188 510.644531 C 589.042969 518.726562 587.105469 526.992188 585.367188 534.585938 C 587.511719 536.410156 589.449219 538.351562 591.179688 540.414062 C 592.914062 542.527344 594.332031 544.820312 595.484375 547.179688 C 606.097656 549.324219 616.292969 551.636719 626.234375 554.105469 C 635.777344 556.460938 645.0625 558.921875 654.085938 561.484375 C 654.0625 561.265625 654.035156 561.039062 654.066406 560.8125 C 654.039062 560.148438 654.070312 559.414062 654.109375 558.859375 C 645.566406 549.371094 636.84375 540.0625 627.984375 530.820312 Z M 627.984375 530.820312 " fill-opacity="1" fill-rule="evenodd"/><path fill="#8ad7f8" d="M 582.605469 501.332031 C 582.976562 499.671875 583.410156 498.007812 583.835938 496.347656 C 582.441406 495.226562 581.097656 494.046875 579.855469 492.808594 C 578.496094 491.457031 577.234375 490.046875 576.191406 488.570312 C 565.21875 485.210938 553.890625 482.058594 542.316406 479.054688 C 531.191406 476.074219 519.660156 473.3125 507.761719 470.707031 C 507.488281 471.234375 507.210938 471.820312 506.816406 472.289062 C 506.523438 472.703125 506.21875 472.941406 505.921875 473.289062 C 515.371094 481.863281 524.820312 490.734375 534.257812 499.839844 C 543.910156 509.234375 553.539062 518.632812 563.105469 528.257812 C 564.996094 527.75 567.140625 527.515625 569.441406 527.746094 C 571.410156 527.921875 573.574219 528.382812 575.765625 529.183594 C 578.039062 519.726562 580.371094 510.402344 582.605469 501.332031 Z M 582.605469 501.332031 " fill-opacity="1" fill-rule="evenodd"/><g clip-path="url(#b925bec000)"><g transform="matrix(1, 0, 0, 1, 527, 556)"><g clip-path="url(#615c91efa3)"><g clip-path="url(#d746308532)"><path fill="#f5f5f5" d="M 0.875 0.730469 L 796.035156 0.730469 L 796.035156 225.660156 L 0.875 225.660156 Z M 0.875 0.730469 " fill-opacity="1" fill-rule="nonzero"/></g></g></g></g><g fill="#000000" fill-opacity="1"><g transform="translate(483.287752, 773.384793)"><g><path d="M 40.09375 -40.359375 C 41.289062 -37.921875 41.890625 -35.207031 41.890625 -32.21875 C 41.890625 -29.226562 41.289062 -26.523438 40.09375 -24.109375 C 38.894531 -21.703125 37.351562 -19.785156 35.46875 -18.359375 C 31.644531 -15.410156 27.6875 -13.9375 23.59375 -13.9375 L 14.96875 -13.9375 L 14.96875 -6.140625 C 14.96875 -5.078125 14.929688 -4.28125 14.859375 -3.75 C 14.796875 -3.226562 14.582031 -2.625 14.21875 -1.9375 C 13.570312 -0.6875 11.773438 -0.0625 8.828125 -0.0625 C 5.609375 -0.0625 3.722656 -0.914062 3.171875 -2.625 C 2.898438 -3.40625 2.765625 -4.597656 2.765625 -6.203125 L 2.765625 -44.5 C 2.765625 -45.5625 2.796875 -46.351562 2.859375 -46.875 C 2.929688 -47.40625 3.148438 -48.019531 3.515625 -48.71875 C 4.160156 -49.957031 5.957031 -50.578125 8.90625 -50.578125 L 23.671875 -50.578125 C 27.710938 -50.578125 31.644531 -49.101562 35.46875 -46.15625 C 37.351562 -44.726562 38.894531 -42.796875 40.09375 -40.359375 Z M 23.671875 -26.15625 C 25.046875 -26.15625 26.398438 -26.660156 27.734375 -27.671875 C 29.066406 -28.679688 29.734375 -30.195312 29.734375 -32.21875 C 29.734375 -34.25 29.066406 -35.78125 27.734375 -36.8125 C 26.398438 -37.84375 25.019531 -38.359375 23.59375 -38.359375 L 14.96875 -38.359375 L 14.96875 -26.15625 Z M 23.671875 -26.15625 "/></g></g></g><g fill="#000000" fill-opacity="1"><g transform="translate(539.86023, 773.384793)"><g><path d="M 41.46875 -8.5625 C 42.15625 -6.90625 42.5 -5.707031 42.5 -4.96875 C 42.5 -3.21875 41.070312 -1.742188 38.21875 -0.546875 C 36.75 0.0859375 35.566406 0.40625 34.671875 0.40625 C 33.773438 0.40625 33.039062 0.191406 32.46875 -0.234375 C 31.894531 -0.671875 31.46875 -1.125 31.1875 -1.59375 C 30.726562 -2.457031 28.9375 -6.617188 25.8125 -14.078125 L 23.671875 -13.9375 L 14.96875 -13.9375 L 14.96875 -6.140625 C 14.96875 -5.078125 14.929688 -4.28125 14.859375 -3.75 C 14.796875 -3.226562 14.582031 -2.625 14.21875 -1.9375 C 13.570312 -0.6875 11.773438 -0.0625 8.828125 -0.0625 C 5.609375 -0.0625 3.722656 -0.914062 3.171875 -2.625 C 2.898438 -3.40625 2.765625 -4.597656 2.765625 -6.203125 L 2.765625 -44.5 C 2.765625 -45.5625 2.796875 -46.351562 2.859375 -46.875 C 2.929688 -47.40625 3.148438 -48.019531 3.515625 -48.71875 C 4.160156 -49.957031 5.957031 -50.578125 8.90625 -50.578125 L 23.8125 -50.578125 C 27.851562 -50.578125 31.785156 -49.101562 35.609375 -46.15625 C 37.441406 -44.726562 38.957031 -42.796875 40.15625 -40.359375 C 41.351562 -37.921875 41.953125 -35.207031 41.953125 -32.21875 C 41.953125 -27.019531 40.226562 -22.742188 36.78125 -19.390625 C 37.789062 -16.953125 39.351562 -13.34375 41.46875 -8.5625 Z M 14.96875 -26.15625 L 23.8125 -26.15625 C 25.144531 -26.15625 26.476562 -26.660156 27.8125 -27.671875 C 29.144531 -28.679688 29.8125 -30.195312 29.8125 -32.21875 C 29.8125 -34.25 29.144531 -35.78125 27.8125 -36.8125 C 26.476562 -37.84375 25.097656 -38.359375 23.671875 -38.359375 L 14.96875 -38.359375 Z M 14.96875 -26.15625 "/></g></g></g><g fill="#000000" fill-opacity="1"><g transform="translate(596.363711, 773.384793)"><g><path d="M 26.5 -51.203125 C 33.300781 -51.203125 39.207031 -48.738281 44.21875 -43.8125 C 49.238281 -38.894531 51.75 -32.789062 51.75 -25.5 C 51.75 -18.207031 49.351562 -11.992188 44.5625 -6.859375 C 39.78125 -1.734375 33.894531 0.828125 26.90625 0.828125 C 19.914062 0.828125 13.96875 -1.703125 9.0625 -6.765625 C 4.164062 -11.828125 1.71875 -17.851562 1.71875 -24.84375 C 1.71875 -28.65625 2.40625 -32.226562 3.78125 -35.5625 C 5.164062 -38.90625 7.007812 -41.703125 9.3125 -43.953125 C 11.613281 -46.203125 14.257812 -47.972656 17.25 -49.265625 C 20.238281 -50.554688 23.320312 -51.203125 26.5 -51.203125 Z M 13.9375 -25.1875 C 13.9375 -21.09375 15.257812 -17.769531 17.90625 -15.21875 C 20.550781 -12.664062 23.503906 -11.390625 26.765625 -11.390625 C 30.035156 -11.390625 32.976562 -12.628906 35.59375 -15.109375 C 38.21875 -17.597656 39.53125 -20.929688 39.53125 -25.109375 C 39.53125 -29.296875 38.207031 -32.65625 35.5625 -35.1875 C 32.925781 -37.71875 29.972656 -38.984375 26.703125 -38.984375 C 23.429688 -38.984375 20.484375 -37.707031 17.859375 -35.15625 C 15.242188 -32.601562 13.9375 -29.28125 13.9375 -25.1875 Z M 13.9375 -25.1875 "/></g></g></g><g fill="#000000" fill-opacity="1"><g transform="translate(662.801499, 773.384793)"><g><path d="M 28.5625 -50.578125 C 30.351562 -50.578125 31.675781 -50.425781 32.53125 -50.125 C 33.382812 -49.832031 33.992188 -49.335938 34.359375 -48.640625 C 34.867188 -47.585938 35.125 -46.160156 35.125 -44.359375 L 35.125 -17.65625 C 35.125 -12.832031 33.375 -8.566406 29.875 -4.859375 C 26.382812 -1.160156 21.921875 0.6875 16.484375 0.6875 C 13.453125 0.6875 10.765625 0.0195312 8.421875 -1.3125 C 6.304688 -2.457031 4.832031 -3.492188 4 -4.421875 L 3.453125 -4.96875 C 1.835938 -6.664062 1.03125 -8.125 1.03125 -9.34375 C 1.03125 -10.5625 1.832031 -12 3.4375 -13.65625 C 5.050781 -15.3125 6.476562 -16.140625 7.71875 -16.140625 C 8.96875 -16.140625 10.347656 -15.378906 11.859375 -13.859375 C 13.378906 -12.347656 15.023438 -11.59375 16.796875 -11.59375 C 18.566406 -11.59375 20.023438 -12.191406 21.171875 -13.390625 C 22.328125 -14.585938 22.90625 -16.171875 22.90625 -18.140625 L 22.90625 -43.953125 C 22.90625 -46.710938 23.363281 -48.484375 24.28125 -49.265625 C 25.34375 -50.140625 26.769531 -50.578125 28.5625 -50.578125 Z M 28.5625 -50.578125 "/></g></g></g><g fill="#000000" fill-opacity="1"><g transform="translate(713.647961, 773.384793)"><g><path d="M 14.96875 -12.21875 L 36.21875 -12.21875 C 37.28125 -12.21875 38.078125 -12.179688 38.609375 -12.109375 C 39.140625 -12.035156 39.75 -11.816406 40.4375 -11.453125 C 41.675781 -10.804688 42.296875 -9.015625 42.296875 -6.078125 C 42.296875 -2.847656 41.445312 -0.957031 39.75 -0.40625 C 38.96875 -0.132812 37.769531 0 36.15625 0 L 8.828125 0 C 5.609375 0 3.722656 -0.875 3.171875 -2.625 C 2.898438 -3.351562 2.765625 -4.523438 2.765625 -6.140625 L 2.765625 -44.5 C 2.765625 -46.851562 3.195312 -48.453125 4.0625 -49.296875 C 4.9375 -50.148438 6.59375 -50.578125 9.03125 -50.578125 L 36.21875 -50.578125 C 37.28125 -50.578125 38.078125 -50.539062 38.609375 -50.46875 C 39.140625 -50.40625 39.75 -50.1875 40.4375 -49.8125 C 41.675781 -49.175781 42.296875 -47.382812 42.296875 -44.4375 C 42.296875 -41.21875 41.445312 -39.332031 39.75 -38.78125 C 38.96875 -38.5 37.769531 -38.359375 36.15625 -38.359375 L 14.96875 -38.359375 L 14.96875 -31.390625 L 28.640625 -31.390625 C 29.691406 -31.390625 30.484375 -31.351562 31.015625 -31.28125 C 31.546875 -31.21875 32.15625 -31.003906 32.84375 -30.640625 C 34.082031 -29.992188 34.703125 -28.195312 34.703125 -25.25 C 34.703125 -22.03125 33.828125 -20.144531 32.078125 -19.59375 C 31.296875 -19.320312 30.101562 -19.1875 28.5 -19.1875 L 14.96875 -19.1875 Z M 14.96875 -12.21875 "/></g></g></g><g fill="#000000" fill-opacity="1"><g transform="translate(770.634361, 773.384793)"><g><path d="M 34.359375 -13.25 L 35.609375 -14.140625 C 37.171875 -15.066406 38.273438 -15.53125 38.921875 -15.53125 C 40.347656 -15.53125 41.882812 -14.238281 43.53125 -11.65625 C 44.550781 -10.050781 45.0625 -8.765625 45.0625 -7.796875 C 45.0625 -6.828125 44.75 -6.019531 44.125 -5.375 C 43.5 -4.738281 42.769531 -4.164062 41.9375 -3.65625 C 41.113281 -3.144531 40.320312 -2.660156 39.5625 -2.203125 C 38.8125 -1.742188 37.257812 -1.144531 34.90625 -0.40625 C 32.5625 0.320312 30.296875 0.6875 28.109375 0.6875 C 25.929688 0.6875 23.722656 0.398438 21.484375 -0.171875 C 19.253906 -0.742188 16.957031 -1.707031 14.59375 -3.0625 C 12.226562 -4.425781 10.097656 -6.082031 8.203125 -8.03125 C 6.316406 -9.988281 4.765625 -12.492188 3.546875 -15.546875 C 2.328125 -18.609375 1.71875 -21.929688 1.71875 -25.515625 C 1.71875 -29.109375 2.316406 -32.363281 3.515625 -35.28125 C 4.710938 -38.207031 6.242188 -40.625 8.109375 -42.53125 C 9.972656 -44.445312 12.097656 -46.046875 14.484375 -47.328125 C 18.992188 -49.816406 23.523438 -51.0625 28.078125 -51.0625 C 30.242188 -51.0625 32.441406 -50.726562 34.671875 -50.0625 C 36.898438 -49.394531 38.59375 -48.71875 39.75 -48.03125 L 41.40625 -47.0625 C 42.226562 -46.550781 42.867188 -46.132812 43.328125 -45.8125 C 44.523438 -44.84375 45.125 -43.75 45.125 -42.53125 C 45.125 -41.3125 44.640625 -40.035156 43.671875 -38.703125 C 41.878906 -36.222656 40.269531 -34.984375 38.84375 -34.984375 C 38.019531 -34.984375 36.847656 -35.488281 35.328125 -36.5 C 33.398438 -38.0625 30.820312 -38.84375 27.59375 -38.84375 C 24.601562 -38.84375 21.660156 -37.804688 18.765625 -35.734375 C 17.390625 -34.722656 16.238281 -33.296875 15.3125 -31.453125 C 14.394531 -29.617188 13.9375 -27.539062 13.9375 -25.21875 C 13.9375 -22.894531 14.394531 -20.8125 15.3125 -18.96875 C 16.238281 -17.132812 17.414062 -15.6875 18.84375 -14.625 C 21.644531 -12.601562 24.5625 -11.59375 27.59375 -11.59375 C 29.019531 -11.59375 30.363281 -11.773438 31.625 -12.140625 C 32.894531 -12.515625 33.804688 -12.882812 34.359375 -13.25 Z M 34.359375 -13.25 "/></g></g></g><g fill="#000000" fill-opacity="1"><g transform="translate(830.449282, 773.384793)"><g><path d="M 6.078125 -50.640625 L 44.4375 -50.640625 C 45.90625 -50.640625 46.984375 -50.46875 47.671875 -50.125 C 48.367188 -49.78125 48.832031 -49.238281 49.0625 -48.5 C 49.289062 -47.769531 49.40625 -46.804688 49.40625 -45.609375 C 49.40625 -44.410156 49.289062 -43.453125 49.0625 -42.734375 C 48.832031 -42.023438 48.441406 -41.535156 47.890625 -41.265625 C 47.054688 -40.847656 45.878906 -40.640625 44.359375 -40.640625 L 31.1875 -40.640625 L 31.1875 -5.9375 C 31.1875 -4.875 31.148438 -4.085938 31.078125 -3.578125 C 31.015625 -3.078125 30.8125 -2.492188 30.46875 -1.828125 C 30.125 -1.160156 29.515625 -0.6875 28.640625 -0.40625 C 27.765625 -0.132812 26.613281 0 25.1875 0 C 23.757812 0 22.617188 -0.132812 21.765625 -0.40625 C 20.921875 -0.6875 20.320312 -1.160156 19.96875 -1.828125 C 19.625 -2.492188 19.414062 -3.09375 19.34375 -3.625 C 19.28125 -4.15625 19.25 -4.945312 19.25 -6 L 19.25 -40.640625 L 6 -40.640625 C 4.53125 -40.640625 3.445312 -40.8125 2.75 -41.15625 C 2.0625 -41.5 1.601562 -42.039062 1.375 -42.78125 C 1.144531 -43.519531 1.03125 -44.484375 1.03125 -45.671875 C 1.03125 -46.867188 1.144531 -47.820312 1.375 -48.53125 C 1.601562 -49.25 1.992188 -49.75 2.546875 -50.03125 C 3.378906 -50.4375 4.554688 -50.640625 6.078125 -50.640625 Z M 6.078125 -50.640625 "/></g></g></g><g fill="#000000" fill-opacity="1"><g transform="translate(893.851559, 773.384793)"><g><path d="M 3.515625 -7.109375 C 2.316406 -8.578125 1.71875 -9.894531 1.71875 -11.0625 C 1.71875 -12.238281 2.707031 -13.796875 4.6875 -15.734375 C 5.84375 -16.835938 7.0625 -17.390625 8.34375 -17.390625 C 9.632812 -17.390625 11.429688 -16.238281 13.734375 -13.9375 C 14.378906 -13.15625 15.296875 -12.40625 16.484375 -11.6875 C 17.679688 -10.976562 18.785156 -10.625 19.796875 -10.625 C 24.078125 -10.625 26.21875 -12.375 26.21875 -15.875 C 26.21875 -16.925781 25.628906 -17.804688 24.453125 -18.515625 C 23.285156 -19.234375 21.828125 -19.753906 20.078125 -20.078125 C 18.328125 -20.398438 16.441406 -20.914062 14.421875 -21.625 C 12.398438 -22.34375 10.515625 -23.179688 8.765625 -24.140625 C 7.015625 -25.109375 5.550781 -26.640625 4.375 -28.734375 C 3.207031 -30.828125 2.625 -33.347656 2.625 -36.296875 C 2.625 -40.335938 4.128906 -43.863281 7.140625 -46.875 C 10.148438 -49.894531 14.253906 -51.40625 19.453125 -51.40625 C 22.210938 -51.40625 24.726562 -51.046875 27 -50.328125 C 29.28125 -49.617188 30.859375 -48.894531 31.734375 -48.15625 L 33.46875 -46.84375 C 34.894531 -45.507812 35.609375 -44.382812 35.609375 -43.46875 C 35.609375 -42.550781 35.054688 -41.285156 33.953125 -39.671875 C 32.390625 -37.367188 30.78125 -36.21875 29.125 -36.21875 C 28.15625 -36.21875 26.957031 -36.679688 25.53125 -37.609375 C 25.394531 -37.703125 25.128906 -37.929688 24.734375 -38.296875 C 24.347656 -38.660156 23.992188 -38.957031 23.671875 -39.1875 C 22.703125 -39.789062 21.46875 -40.09375 19.96875 -40.09375 C 18.476562 -40.09375 17.238281 -39.734375 16.25 -39.015625 C 15.257812 -38.304688 14.765625 -37.316406 14.765625 -36.046875 C 14.765625 -34.785156 15.347656 -33.765625 16.515625 -32.984375 C 17.691406 -32.203125 19.15625 -31.671875 20.90625 -31.390625 C 22.65625 -31.117188 24.5625 -30.691406 26.625 -30.109375 C 28.695312 -29.535156 30.609375 -28.832031 32.359375 -28 C 34.109375 -27.175781 35.566406 -25.738281 36.734375 -23.6875 C 37.910156 -21.644531 38.5 -19.128906 38.5 -16.140625 C 38.5 -13.148438 37.898438 -10.515625 36.703125 -8.234375 C 35.503906 -5.960938 33.941406 -4.207031 32.015625 -2.96875 C 28.285156 -0.53125 24.304688 0.6875 20.078125 0.6875 C 17.921875 0.6875 15.875 0.425781 13.9375 -0.09375 C 12.007812 -0.625 10.445312 -1.28125 9.25 -2.0625 C 6.8125 -3.539062 5.109375 -4.96875 4.140625 -6.34375 Z M 3.515625 -7.109375 "/></g></g></g><g fill="#2e365e" fill-opacity="1"><g transform="translate(476.087752, 695.213008)"><g/></g></g><g fill="#2e365e" fill-opacity="1"><g transform="translate(516.818794, 695.213008)"><g/></g></g><g fill="#2e365e" fill-opacity="1"><g transform="translate(557.556495, 695.213008)"><g><path d="M 90.484375 -63.265625 C 96.816406 -55.753906 99.984375 -47.332031 99.984375 -38 C 99.765625 -27.257812 96.085938 -18.265625 88.953125 -11.015625 C 81.816406 -3.773438 73.148438 -0.15625 62.953125 -0.15625 L 20.609375 -0.15625 C 13.097656 -0.15625 8.695312 -2.195312 7.40625 -6.28125 C 6.757812 -8.101562 6.4375 -10.894531 6.4375 -14.65625 L 6.4375 -104 C 6.4375 -106.582031 6.515625 -108.460938 6.671875 -109.640625 C 6.835938 -110.816406 7.351562 -112.210938 8.21875 -113.828125 C 9.71875 -116.722656 13.898438 -118.171875 20.765625 -118.171875 L 61.34375 -118.171875 C 71.21875 -118.171875 79.484375 -114.738281 86.140625 -107.875 C 93.109375 -100.894531 96.59375 -92.519531 96.59375 -82.75 C 96.59375 -75.664062 94.554688 -69.171875 90.484375 -63.265625 Z M 71.484375 -39.609375 C 71.484375 -42.179688 71.1875 -44.21875 70.59375 -45.71875 C 70.007812 -47.226562 69.019531 -48.300781 67.625 -48.9375 C 65.476562 -49.800781 62.472656 -50.234375 58.609375 -50.234375 C 54.742188 -50.234375 51.84375 -50.984375 49.90625 -52.484375 C 47.976562 -53.984375 47.015625 -57.066406 47.015625 -61.734375 C 47.015625 -66.410156 48.003906 -69.5 49.984375 -71 C 51.972656 -72.5 55.273438 -73.25 59.890625 -73.25 C 64.179688 -73.25 66.757812 -74.378906 67.625 -76.640625 C 67.945312 -77.816406 68.109375 -79.742188 68.109375 -82.421875 C 68.109375 -85.109375 67.222656 -86.988281 65.453125 -88.0625 C 63.679688 -89.132812 61.023438 -89.671875 57.484375 -89.671875 L 34.9375 -89.671875 L 34.9375 -28.65625 L 61.34375 -28.65625 C 68.101562 -28.65625 71.484375 -32.304688 71.484375 -39.609375 Z M 71.484375 -39.609375 "/></g></g></g><g fill="#2e365e" fill-opacity="1"><g transform="translate(661.557486, 695.213008)"><g><path d="M 79.046875 -59.734375 L 111.40625 -24.15625 C 115.0625 -20.070312 116.890625 -16.632812 116.890625 -13.84375 C 116.890625 -11.050781 114.820312 -7.773438 110.6875 -4.015625 C 106.550781 -0.265625 103.0625 1.609375 100.21875 1.609375 C 97.375 1.609375 94.078125 -0.535156 90.328125 -4.828125 L 59.734375 -39.921875 L 29.140625 -4.828125 C 25.273438 -0.535156 21.972656 1.609375 19.234375 1.609375 C 16.503906 1.609375 13.019531 -0.296875 8.78125 -4.109375 C 4.539062 -7.921875 2.421875 -11.164062 2.421875 -13.84375 C 2.421875 -16.53125 4.296875 -19.96875 8.046875 -24.15625 L 40.40625 -59.734375 L 8.046875 -95.3125 C 4.296875 -99.28125 2.421875 -102.660156 2.421875 -105.453125 C 2.421875 -108.242188 4.507812 -111.546875 8.6875 -115.359375 C 12.875 -119.171875 16.390625 -121.078125 19.234375 -121.078125 C 22.078125 -121.078125 25.378906 -118.925781 29.140625 -114.625 L 59.734375 -79.53125 L 90.328125 -114.625 C 94.179688 -118.925781 97.476562 -121.078125 100.21875 -121.078125 C 102.957031 -121.078125 106.421875 -119.195312 110.609375 -115.4375 C 114.796875 -111.675781 116.890625 -108.347656 116.890625 -105.453125 C 116.890625 -102.554688 115.0625 -99.175781 111.40625 -95.3125 Z M 79.046875 -59.734375 "/></g></g></g><g fill="#2e365e" fill-opacity="1"><g transform="translate(780.852748, 695.213008)"><g><path d="M 34.9375 -23.828125 L 78.734375 -23.828125 C 82.273438 -23.828125 84.847656 -23.421875 86.453125 -22.609375 C 88.066406 -21.804688 89.140625 -20.546875 89.671875 -18.828125 C 90.210938 -17.117188 90.484375 -14.84375 90.484375 -12 C 90.484375 -9.15625 90.210938 -6.875 89.671875 -5.15625 C 89.140625 -3.4375 88.226562 -2.253906 86.9375 -1.609375 C 84.894531 -0.535156 82.101562 0 78.5625 0 L 20.609375 0 C 13.097656 0 8.695312 -2.039062 7.40625 -6.125 C 6.757812 -7.832031 6.4375 -10.566406 6.4375 -14.328125 L 6.4375 -103.84375 C 6.4375 -106.3125 6.515625 -108.160156 6.671875 -109.390625 C 6.835938 -110.628906 7.351562 -112.054688 8.21875 -113.671875 C 9.71875 -116.566406 13.898438 -118.015625 20.765625 -118.015625 C 28.273438 -118.015625 32.726562 -116.03125 34.125 -112.0625 C 34.664062 -110.226562 34.9375 -107.4375 34.9375 -103.6875 Z M 34.9375 -23.828125 "/></g></g></g><g fill="#2e365e" fill-opacity="1"><g transform="translate(875.357253, 695.213008)"><g/></g></g></svg>